# xmcd
#
# Track frame offsets: 
#        150
#        22053
#        48026
#        73869
#        98292
#        125497
#        144601
#        157698
#        185412
#        212335
#        241141
#        266726
#        287323
#
# Disc length: 4206 seconds
#
# Revision: 1
# Processed by: cddbd v1.5.2PL0 Copyright (c) Steve Scherf et al.
# Submitted via: ExactAudioCopy v0.99pb4
#
DISCID=a8106c0d
DTITLE=RAZA - Indian Instrumental
DYEAR=2007
DGENRE=Native American
TTITLE0=The Last of Mohicans
TTITLE1=Sueños de Manuel
TTITLE2=Love Mountain
TTITLE3=White Buffalo
TTITLE4=Valle del Alto
TTITLE5=Blue Sky
TTITLE6=Atuk
TTITLE7=Sun Kuy Man
TTITLE8=Buffalo
TTITLE9=Wayrapa Muspuynin
TTITLE10=Precious Waters
TTITLE11=White Indian
TTITLE12=Shaman Song
EXTD=
EXTT0=
EXTT1=
EXTT2=
EXTT3=
EXTT4=
EXTT5=
EXTT6=
EXTT7=
EXTT8=
EXTT9=
EXTT10=
EXTT11=
EXTT12=
PLAYORDER=
